<svg width="121" height="120" viewBox="0 0 121 120" fill="none" xmlns="http://www.w3.org/2000/svg">
<g clip-path="url(#clip0)">
<path d="M0.537964 104.527C0.537964 113.073 7.46562 120 16.0109 120H105.065C113.611 120 120.538 113.072 120.538 104.527V15.4734C120.538 6.92672 113.61 0 105.065 0H16.0114C7.46468 0 0.537964 6.92766 0.537964 15.473V104.527V104.527Z" fill="#190032"/>
<path d="M50.2993 53.0803V36.0867H65.2576C66.6826 36.0867 68.056 36.2053 69.3788 36.443C70.7016 36.6802 71.8721 37.1039 72.8898 37.7147C73.9069 38.3255 74.7212 39.1734 75.3319 40.2586C75.9423 41.3442 76.2479 42.735 76.2479 44.4305C76.2479 47.4834 75.3319 49.6884 73.5001 51.045C71.6687 52.402 69.3282 53.0803 66.4787 53.0803H50.2993ZM34.3229 23.6719V96.3281H69.5316C72.788 96.3281 75.9596 95.9212 79.0463 95.107C82.133 94.2928 84.8804 93.038 87.2888 91.342C89.6968 89.6461 91.6135 87.458 93.038 84.7786C94.463 82.0987 95.1751 78.9272 95.1751 75.2639C95.1751 70.7184 94.0726 66.8348 91.868 63.6127C89.663 60.39 86.3218 58.1344 81.8443 56.8453C85.1007 55.2853 87.5602 53.2837 89.2224 50.8416C90.8841 48.3994 91.7152 45.3469 91.7152 41.6831C91.7152 38.2913 91.1555 35.4422 90.0362 33.1355C88.9168 30.8292 87.3394 28.9805 85.3041 27.5897C83.2693 26.1989 80.8271 25.1981 77.9776 24.5878C75.1285 23.977 71.9738 23.6719 68.514 23.6719H34.3229ZM50.2993 83.9133V63.9684H67.6998C71.1596 63.9684 73.9412 64.7653 76.0444 66.36C78.1473 67.9542 79.1991 70.6167 79.1991 74.348C79.1991 76.2478 78.8766 77.8078 78.2321 79.0289C77.5876 80.25 76.7227 81.217 75.6371 81.9291C74.5519 82.6416 73.2966 83.1502 71.8721 83.4558C70.4471 83.7605 68.9551 83.9133 67.3946 83.9133H50.2993Z" fill="white"/>
</g>
<defs>
<clipPath id="clip0">
<rect width="120" height="120" fill="white" transform="translate(0.537964)"/>
</clipPath>
</defs>
</svg>
