<svg width="93" height="120" viewBox="0 0 93 120" fill="none" xmlns="http://www.w3.org/2000/svg">
<path d="M3.07644 78.3571L15.7316 2.30142C16.1493 -0.27865 19.8723 -0.863664 21.1696 1.44264L34.7887 25.2895L3.07644 78.3571ZM93 96.815L80.9513 26.812C80.86 26.3229 80.6269 25.8664 80.2774 25.4922C79.928 25.1179 79.4754 24.8402 78.9688 24.6891C78.4623 24.538 77.9211 24.5193 77.404 24.6351C76.8868 24.7508 76.4135 24.9966 76.0354 25.3457L0 96.8113L42.0661 118.959C44.7007 120.347 47.9218 120.347 50.5604 118.959L93 96.815ZM58.8218 35.7373L49.0744 18.3143C48.8276 17.877 48.4575 17.5108 48.0042 17.2554C47.5509 17 47.0315 16.8651 46.502 16.8651C45.9726 16.8651 45.4532 17 44.9998 17.2554C44.5465 17.5108 44.1765 17.877 43.9296 18.3143L1.15266 89.9186L58.8218 35.7373Z" fill="#190032"/>
</svg>
