<svg width="120" height="120" viewBox="0 0 120 120" fill="none" xmlns="http://www.w3.org/2000/svg">
<path d="M98.6147 115.698L98.7309 115.38C98.8445 115.132 98.9364 114.868 99.0047 114.592V114.567C99.376 113.254 99.4548 111.86 99.2785 110.461V110.512C99.0859 109.031 98.6876 107.613 98.1046 106.331L98.1422 106.381L71.5373 43.3917L67.4757 33.8428L36.8881 106.381C36.3593 107.644 36.0292 109.012 35.853 110.431V110.512C35.6392 112.143 35.7742 113.799 36.2617 115.324L36.243 115.274C36.303 115.511 36.4005 115.723 36.498 115.955L36.4793 115.93C37.2818 117.773 38.9807 119.98 42.7311 119.98H92.2279C93.0079 119.98 96.8558 119.768 98.6334 115.693L98.6147 115.698ZM67.4795 52.9709L91.7778 110.517H43.1999L67.4795 52.9709ZM118.731 106.391L83.6509 23.1779C83.2796 22.2841 81.2694 17.8657 77.7329 17.8657C76.1502 17.8657 73.885 18.7847 72.0286 23.1527L67.4982 33.8579L71.5223 43.4321L77.7741 28.5205L112.483 110.552H99.2785C99.4548 111.921 99.3573 113.314 99.0047 114.627V114.577C98.926 114.865 98.8472 115.157 98.7309 115.42V115.395L98.6147 115.713C96.837 119.788 93.0079 120 92.2654 120H112.911C113.672 120 117.483 119.788 119.26 115.713C120.063 113.844 120.607 110.744 118.731 106.401V106.391ZM36.5205 115.935L36.2843 115.304V115.279C35.7934 113.766 35.6434 112.093 35.853 110.466V110.517H7.48924L49.6429 10.6548L63.4704 43.3967L67.4945 33.8478L55.4222 5.23144C55.0884 4.41845 53.0595 0 49.5417 0C47.959 0 45.6751 0.919037 43.8374 5.31224L1.13994 106.386C0.768655 107.255 -0.990248 111.83 0.768655 115.905C1.57123 117.773 3.27012 119.955 7.02045 119.955H42.7648C39.052 119.955 37.3156 117.798 36.513 115.905L36.5205 115.935Z" fill="#190032"/>
</svg>
